<mxfile host="app.diagrams.net" modified="2023-11-14T15:22:00.578Z" agent="Mozilla/5.0 (Windows NT 10.0; Win64; x64; rv:109.0) Gecko/20100101 Firefox/119.0" etag="EShEW8MCPvAoeW0iBjRg" version="22.1.1" type="github">
  <diagram name="Page-1" id="_LEgiRYE22nnNKqFPEBX">
    <mxGraphModel dx="880" dy="462" grid="1" gridSize="10" guides="1" tooltips="1" connect="1" arrows="1" fold="1" page="1" pageScale="1" pageWidth="850" pageHeight="1100" math="0" shadow="0">
      <root>
        <mxCell id="0" />
        <mxCell id="1" parent="0" />
        <mxCell id="mpxGzmtjkwxusNNCshFe-4" value="" style="rounded=0;whiteSpace=wrap;html=1;" vertex="1" parent="1">
          <mxGeometry x="630" y="140" width="20" height="290" as="geometry" />
        </mxCell>
        <mxCell id="mpxGzmtjkwxusNNCshFe-1" value="&lt;font style=&quot;font-size: 16px;&quot;&gt;FrontEnd&lt;/font&gt;" style="rounded=0;whiteSpace=wrap;html=1;" vertex="1" parent="1">
          <mxGeometry x="50" y="60" width="120" height="60" as="geometry" />
        </mxCell>
        <mxCell id="mpxGzmtjkwxusNNCshFe-2" value="&lt;font style=&quot;font-size: 16px;&quot;&gt;BackEnd&lt;/font&gt;" style="rounded=0;whiteSpace=wrap;html=1;" vertex="1" parent="1">
          <mxGeometry x="570" y="60" width="220" height="60" as="geometry" />
        </mxCell>
        <mxCell id="mpxGzmtjkwxusNNCshFe-3" value="" style="rounded=0;whiteSpace=wrap;html=1;" vertex="1" parent="1">
          <mxGeometry x="100" y="140" width="20" height="290" as="geometry" />
        </mxCell>
        <mxCell id="mpxGzmtjkwxusNNCshFe-5" value="" style="rounded=0;whiteSpace=wrap;html=1;" vertex="1" parent="1">
          <mxGeometry x="710" y="140" width="20" height="290" as="geometry" />
        </mxCell>
        <mxCell id="mpxGzmtjkwxusNNCshFe-6" value="" style="endArrow=classic;html=1;rounded=0;entryX=0;entryY=0.079;entryDx=0;entryDy=0;entryPerimeter=0;" edge="1" parent="1">
          <mxGeometry width="50" height="50" relative="1" as="geometry">
            <mxPoint x="120" y="161" as="sourcePoint" />
            <mxPoint x="710" y="163.90999999999997" as="targetPoint" />
          </mxGeometry>
        </mxCell>
        <mxCell id="mpxGzmtjkwxusNNCshFe-7" value="&lt;font style=&quot;font-size: 14px;&quot;&gt;GET&lt;/font&gt;" style="edgeLabel;html=1;align=center;verticalAlign=middle;resizable=0;points=[];labelBorderColor=default;" vertex="1" connectable="0" parent="mpxGzmtjkwxusNNCshFe-6">
          <mxGeometry x="-0.8169" relative="1" as="geometry">
            <mxPoint x="-4" as="offset" />
          </mxGeometry>
        </mxCell>
        <mxCell id="mpxGzmtjkwxusNNCshFe-8" value="&lt;font style=&quot;font-size: 12px;&quot;&gt;&amp;nbsp;/category/read&lt;/font&gt;" style="edgeLabel;html=1;align=center;verticalAlign=middle;resizable=0;points=[];" vertex="1" connectable="0" parent="mpxGzmtjkwxusNNCshFe-6">
          <mxGeometry x="-0.6407" y="-1" relative="1" as="geometry">
            <mxPoint x="50" y="-2" as="offset" />
          </mxGeometry>
        </mxCell>
        <mxCell id="mpxGzmtjkwxusNNCshFe-9" value="&lt;font style=&quot;font-size: 14px;&quot;&gt;Read&lt;/font&gt;" style="edgeLabel;html=1;align=center;verticalAlign=middle;resizable=0;points=[];" vertex="1" connectable="0" parent="mpxGzmtjkwxusNNCshFe-6">
          <mxGeometry x="-0.6814" y="-1" relative="1" as="geometry">
            <mxPoint x="3" y="-23" as="offset" />
          </mxGeometry>
        </mxCell>
        <mxCell id="mpxGzmtjkwxusNNCshFe-10" value="" style="endArrow=classic;html=1;rounded=0;entryX=1.1;entryY=0.145;entryDx=0;entryDy=0;entryPerimeter=0;exitX=0.05;exitY=0.155;exitDx=0;exitDy=0;exitPerimeter=0;" edge="1" parent="1" source="mpxGzmtjkwxusNNCshFe-5" target="mpxGzmtjkwxusNNCshFe-3">
          <mxGeometry width="50" height="50" relative="1" as="geometry">
            <mxPoint x="270" y="320" as="sourcePoint" />
            <mxPoint x="320" y="270" as="targetPoint" />
          </mxGeometry>
        </mxCell>
        <mxCell id="mpxGzmtjkwxusNNCshFe-11" value="&lt;font style=&quot;font-size: 14px;&quot;&gt;category&lt;/font&gt;" style="edgeLabel;html=1;align=center;verticalAlign=middle;resizable=0;points=[];" vertex="1" connectable="0" parent="mpxGzmtjkwxusNNCshFe-10">
          <mxGeometry x="-0.0498" y="-1" relative="1" as="geometry">
            <mxPoint x="9" as="offset" />
          </mxGeometry>
        </mxCell>
        <mxCell id="mpxGzmtjkwxusNNCshFe-12" value="isAdmin" style="text;html=1;align=center;verticalAlign=middle;resizable=0;points=[];autosize=1;strokeColor=none;fillColor=none;" vertex="1" parent="1">
          <mxGeometry x="604" y="116" width="70" height="30" as="geometry" />
        </mxCell>
        <mxCell id="mpxGzmtjkwxusNNCshFe-13" value="" style="endArrow=classic;html=1;rounded=0;exitX=1;exitY=0.341;exitDx=0;exitDy=0;exitPerimeter=0;entryX=-0.3;entryY=0.352;entryDx=0;entryDy=0;entryPerimeter=0;" edge="1" parent="1" source="mpxGzmtjkwxusNNCshFe-3" target="mpxGzmtjkwxusNNCshFe-4">
          <mxGeometry width="50" height="50" relative="1" as="geometry">
            <mxPoint x="160" y="280" as="sourcePoint" />
            <mxPoint x="210" y="230" as="targetPoint" />
          </mxGeometry>
        </mxCell>
        <mxCell id="mpxGzmtjkwxusNNCshFe-14" value="&lt;font style=&quot;font-size: 14px;&quot;&gt;POST&lt;/font&gt;" style="edgeLabel;html=1;align=center;verticalAlign=middle;resizable=0;points=[];labelBorderColor=default;" vertex="1" connectable="0" parent="mpxGzmtjkwxusNNCshFe-13">
          <mxGeometry x="-0.8257" relative="1" as="geometry">
            <mxPoint x="7" as="offset" />
          </mxGeometry>
        </mxCell>
        <mxCell id="mpxGzmtjkwxusNNCshFe-15" value="&lt;font style=&quot;font-size: 14px;&quot;&gt;title+description?+cover?&lt;/font&gt;" style="edgeLabel;html=1;align=center;verticalAlign=middle;resizable=0;points=[];spacingLeft=-2;spacingTop=1;spacing=3;" vertex="1" connectable="0" parent="mpxGzmtjkwxusNNCshFe-13">
          <mxGeometry x="-0.589" y="-1" relative="1" as="geometry">
            <mxPoint x="232" y="-8" as="offset" />
          </mxGeometry>
        </mxCell>
        <mxCell id="mpxGzmtjkwxusNNCshFe-16" value="&lt;font style=&quot;font-size: 12px;&quot;&gt;/category/create&lt;/font&gt;" style="edgeLabel;html=1;align=center;verticalAlign=middle;resizable=0;points=[];" vertex="1" connectable="0" parent="mpxGzmtjkwxusNNCshFe-13">
          <mxGeometry x="-0.4912" relative="1" as="geometry">
            <mxPoint x="36" as="offset" />
          </mxGeometry>
        </mxCell>
        <mxCell id="mpxGzmtjkwxusNNCshFe-17" value="&lt;font style=&quot;font-size: 14px;&quot;&gt;Create&lt;/font&gt;" style="edgeLabel;html=1;align=center;verticalAlign=middle;resizable=0;points=[];" vertex="1" connectable="0" parent="mpxGzmtjkwxusNNCshFe-13">
          <mxGeometry x="-0.6869" y="1" relative="1" as="geometry">
            <mxPoint x="20" y="-19" as="offset" />
          </mxGeometry>
        </mxCell>
        <mxCell id="mpxGzmtjkwxusNNCshFe-18" value="" style="endArrow=classic;html=1;rounded=0;exitX=1.15;exitY=0.345;exitDx=0;exitDy=0;exitPerimeter=0;entryX=-0.2;entryY=0.341;entryDx=0;entryDy=0;entryPerimeter=0;" edge="1" parent="1" source="mpxGzmtjkwxusNNCshFe-4" target="mpxGzmtjkwxusNNCshFe-5">
          <mxGeometry width="50" height="50" relative="1" as="geometry">
            <mxPoint x="640" y="300" as="sourcePoint" />
            <mxPoint x="690" y="250" as="targetPoint" />
          </mxGeometry>
        </mxCell>
        <mxCell id="mpxGzmtjkwxusNNCshFe-19" value="" style="endArrow=classic;html=1;rounded=0;entryX=1.2;entryY=0.448;entryDx=0;entryDy=0;entryPerimeter=0;exitX=-0.3;exitY=0.462;exitDx=0;exitDy=0;exitPerimeter=0;" edge="1" parent="1" source="mpxGzmtjkwxusNNCshFe-5" target="mpxGzmtjkwxusNNCshFe-3">
          <mxGeometry width="50" height="50" relative="1" as="geometry">
            <mxPoint x="480" y="330" as="sourcePoint" />
            <mxPoint x="530" y="280" as="targetPoint" />
          </mxGeometry>
        </mxCell>
        <mxCell id="mpxGzmtjkwxusNNCshFe-20" value="&lt;font style=&quot;font-size: 14px;&quot;&gt;category&lt;/font&gt;" style="edgeLabel;html=1;align=center;verticalAlign=middle;resizable=0;points=[];" vertex="1" connectable="0" parent="mpxGzmtjkwxusNNCshFe-19">
          <mxGeometry x="0.0035" y="2" relative="1" as="geometry">
            <mxPoint x="22" y="-3" as="offset" />
          </mxGeometry>
        </mxCell>
        <mxCell id="mpxGzmtjkwxusNNCshFe-21" value="" style="endArrow=classic;html=1;rounded=0;exitX=1;exitY=0.45;exitDx=0;exitDy=0;exitPerimeter=0;entryX=0.05;entryY=0.45;entryDx=0;entryDy=0;entryPerimeter=0;" edge="1" parent="1">
          <mxGeometry width="50" height="50" relative="1" as="geometry">
            <mxPoint x="119" y="319" as="sourcePoint" />
            <mxPoint x="630" y="319" as="targetPoint" />
          </mxGeometry>
        </mxCell>
        <mxCell id="mpxGzmtjkwxusNNCshFe-22" value="&lt;font style=&quot;font-size: 14px;&quot;&gt;PUT&lt;/font&gt;" style="edgeLabel;html=1;align=center;verticalAlign=middle;resizable=0;points=[];labelBorderColor=default;" vertex="1" connectable="0" parent="mpxGzmtjkwxusNNCshFe-21">
          <mxGeometry x="-0.8257" relative="1" as="geometry">
            <mxPoint as="offset" />
          </mxGeometry>
        </mxCell>
        <mxCell id="mpxGzmtjkwxusNNCshFe-23" value="&lt;font style=&quot;font-size: 14px;&quot;&gt;title?+description?+cover?&lt;/font&gt;" style="edgeLabel;html=1;align=center;verticalAlign=middle;resizable=0;points=[];spacingLeft=-2;spacingTop=1;spacing=3;" vertex="1" connectable="0" parent="mpxGzmtjkwxusNNCshFe-21">
          <mxGeometry x="-0.589" y="-1" relative="1" as="geometry">
            <mxPoint x="231" y="-8" as="offset" />
          </mxGeometry>
        </mxCell>
        <mxCell id="mpxGzmtjkwxusNNCshFe-24" value="&lt;font style=&quot;font-size: 12px;&quot;&gt;/category/update/:id&lt;/font&gt;" style="edgeLabel;html=1;align=center;verticalAlign=middle;resizable=0;points=[];" vertex="1" connectable="0" parent="mpxGzmtjkwxusNNCshFe-21">
          <mxGeometry x="-0.4912" relative="1" as="geometry">
            <mxPoint x="46" as="offset" />
          </mxGeometry>
        </mxCell>
        <mxCell id="mpxGzmtjkwxusNNCshFe-25" value="&lt;font style=&quot;font-size: 14px;&quot;&gt;Update&lt;/font&gt;" style="edgeLabel;html=1;align=center;verticalAlign=middle;resizable=0;points=[];" vertex="1" connectable="0" parent="mpxGzmtjkwxusNNCshFe-21">
          <mxGeometry x="-0.6869" y="1" relative="1" as="geometry">
            <mxPoint x="20" y="-19" as="offset" />
          </mxGeometry>
        </mxCell>
        <mxCell id="mpxGzmtjkwxusNNCshFe-26" value="" style="endArrow=classic;html=1;rounded=0;entryX=1.3;entryY=0.591;entryDx=0;entryDy=0;entryPerimeter=0;exitX=-0.2;exitY=0.586;exitDx=0;exitDy=0;exitPerimeter=0;" edge="1" parent="1">
          <mxGeometry width="50" height="50" relative="1" as="geometry">
            <mxPoint x="704" y="345" as="sourcePoint" />
            <mxPoint x="124" y="346" as="targetPoint" />
          </mxGeometry>
        </mxCell>
        <mxCell id="mpxGzmtjkwxusNNCshFe-27" value="&lt;font style=&quot;font-size: 14px;&quot;&gt;category&lt;/font&gt;" style="edgeLabel;html=1;align=center;verticalAlign=middle;resizable=0;points=[];" vertex="1" connectable="0" parent="mpxGzmtjkwxusNNCshFe-26">
          <mxGeometry x="0.0035" y="2" relative="1" as="geometry">
            <mxPoint x="22" y="-3" as="offset" />
          </mxGeometry>
        </mxCell>
        <mxCell id="mpxGzmtjkwxusNNCshFe-28" value="" style="endArrow=classic;html=1;rounded=0;exitX=1.15;exitY=0.345;exitDx=0;exitDy=0;exitPerimeter=0;entryX=-0.2;entryY=0.341;entryDx=0;entryDy=0;entryPerimeter=0;" edge="1" parent="1">
          <mxGeometry width="50" height="50" relative="1" as="geometry">
            <mxPoint x="653" y="319" as="sourcePoint" />
            <mxPoint x="706" y="318" as="targetPoint" />
          </mxGeometry>
        </mxCell>
        <mxCell id="mpxGzmtjkwxusNNCshFe-29" value="" style="endArrow=classic;html=1;rounded=0;" edge="1" parent="1">
          <mxGeometry width="50" height="50" relative="1" as="geometry">
            <mxPoint x="120" y="396" as="sourcePoint" />
            <mxPoint x="630" y="399" as="targetPoint" />
          </mxGeometry>
        </mxCell>
        <mxCell id="mpxGzmtjkwxusNNCshFe-30" value="&lt;font style=&quot;font-size: 14px;&quot;&gt;DELETE&lt;/font&gt;" style="edgeLabel;html=1;align=center;verticalAlign=middle;resizable=0;points=[];labelBorderColor=default;" vertex="1" connectable="0" parent="mpxGzmtjkwxusNNCshFe-29">
          <mxGeometry x="-0.8169" relative="1" as="geometry">
            <mxPoint x="-7" as="offset" />
          </mxGeometry>
        </mxCell>
        <mxCell id="mpxGzmtjkwxusNNCshFe-31" value="&lt;font style=&quot;font-size: 12px;&quot;&gt;&amp;nbsp;/category/delete/:id&lt;/font&gt;" style="edgeLabel;html=1;align=center;verticalAlign=middle;resizable=0;points=[];" vertex="1" connectable="0" parent="mpxGzmtjkwxusNNCshFe-29">
          <mxGeometry x="-0.6407" y="-1" relative="1" as="geometry">
            <mxPoint x="66" y="-2" as="offset" />
          </mxGeometry>
        </mxCell>
        <mxCell id="mpxGzmtjkwxusNNCshFe-32" value="&lt;font style=&quot;font-size: 14px;&quot;&gt;Delete&lt;/font&gt;" style="edgeLabel;html=1;align=center;verticalAlign=middle;resizable=0;points=[];" vertex="1" connectable="0" parent="mpxGzmtjkwxusNNCshFe-29">
          <mxGeometry x="-0.6814" y="-1" relative="1" as="geometry">
            <mxPoint x="3" y="-23" as="offset" />
          </mxGeometry>
        </mxCell>
        <mxCell id="mpxGzmtjkwxusNNCshFe-33" value="" style="endArrow=classic;html=1;rounded=0;exitX=-0.2;exitY=0.586;exitDx=0;exitDy=0;exitPerimeter=0;" edge="1" parent="1">
          <mxGeometry width="50" height="50" relative="1" as="geometry">
            <mxPoint x="705" y="422" as="sourcePoint" />
            <mxPoint x="130" y="420" as="targetPoint" />
          </mxGeometry>
        </mxCell>
        <mxCell id="mpxGzmtjkwxusNNCshFe-34" value="&lt;font style=&quot;font-size: 14px;&quot;&gt;category&lt;/font&gt;" style="edgeLabel;html=1;align=center;verticalAlign=middle;resizable=0;points=[];" vertex="1" connectable="0" parent="mpxGzmtjkwxusNNCshFe-33">
          <mxGeometry x="0.0035" y="2" relative="1" as="geometry">
            <mxPoint x="22" y="-3" as="offset" />
          </mxGeometry>
        </mxCell>
        <mxCell id="mpxGzmtjkwxusNNCshFe-35" value="" style="endArrow=classic;html=1;rounded=0;exitX=1.15;exitY=0.345;exitDx=0;exitDy=0;exitPerimeter=0;entryX=-0.2;entryY=0.341;entryDx=0;entryDy=0;entryPerimeter=0;" edge="1" parent="1">
          <mxGeometry width="50" height="50" relative="1" as="geometry">
            <mxPoint x="653" y="400" as="sourcePoint" />
            <mxPoint x="706" y="399" as="targetPoint" />
          </mxGeometry>
        </mxCell>
      </root>
    </mxGraphModel>
  </diagram>
</mxfile>
